# xmcd
#
# Track frame offsets:
#	150
#	600
#	21266
#	27079
#	53650
#	66385
#	77716
#	87118
#	113205
#	134516
#	140787
#	158181
#	175288
#	197040
#	215935
#	223190
#	225295
#	226543
#	233601
#	261762
#	275935
#	288306
#
# Disc length: 4156 seconds
#
# Revision: 0
# Processed by: cddbd v1.5.1PL2 Copyright (c) Steve Scherf et al.
# Submitted via: dBpowerAMP V4.0
#
DISCID=3e103a16
DTITLE=Åke Edwardson - Sol och skugga - CD-BOK 06/11
DYEAR=1999
DGENRE=CD-BOK
TTITLE0=06.01
TTITLE1=06.02
TTITLE2=06.03
TTITLE3=06.04
TTITLE4=06.05
TTITLE5=06.06
TTITLE6=06.07
TTITLE7=06.08
TTITLE8=06.09
TTITLE9=06.10
TTITLE10=06.11
TTITLE11=06.12
TTITLE12=06.13
TTITLE13=06.14
TTITLE14=06.15
TTITLE15=06.16
TTITLE16=06.17
TTITLE17=06.18
TTITLE18=06.19
TTITLE19=06.20
TTITLE20=06.21
TTITLE21=06.22
EXTD=
EXTT0=
EXTT1=
EXTT2=
EXTT3=
EXTT4=
EXTT5=
EXTT6=
EXTT7=
EXTT8=
EXTT9=
EXTT10=
EXTT11=
EXTT12=
EXTT13=
EXTT14=
EXTT15=
EXTT16=
EXTT17=
EXTT18=
EXTT19=
EXTT20=
EXTT21=
PLAYORDER=
